<svg xmlns="http://www.w3.org/2000/svg" viewBox="0 0 100 100"><circle cx="50" cy="50" r="50" fill="#FBBF24"/><g transform="scale(0.7) translate(21.5, 21.5)">
            <g fill="#2563EB">
                <path d="M50,55 C35,55 20,60 20,85 L20,92 L50,92 Z" />
                <path d="M50,17 A18,18 0 0 0 50,53 Z" />
            </g>
            <g fill="#3B82F6">
                <path d="M50,55 C65,55 80,60 80,85 L80,92 L50,92 Z" />
                <path d="M50,17 A18,18 0 0 1 50,53 Z" />
                <path d="M66,30 C74,22 82,34 76,46 C70,42 66,42 66,30" />
            </g>
        </g></svg>