<svg xmlns="http://www.w3.org/2000/svg" viewBox="0 0 100 100"><circle cx="50" cy="50" r="50" fill="#FFB900"/>
            <g transform="translate(15, 15) scale(0.7)">
                <g fill="#1E40AF">
                    <path d="M50,12 A20,20 0 0 0 50,52 Z" />
                    <path d="M50,55 C32,55 15,60 15,85 L15,95 L50,95 Z" />
                </g>
                <g fill="#60A5FA">
                    <path d="M50,12 A20,20 0 0 1 50,52 Z" />
                    <path d="M50,55 C68,55 85,60 85,85 L85,95 L50,95 Z" />
                    <path d="M68,28 C78,18 90,32 84,46 C78,42 70,42 70,28" />
                </g>
                <text x="34" y="78" fill="#FF0000" font-family="sans-serif" font-size="32" font-weight="900" text-anchor="middle">M</text>
                <text x="66" y="78" fill="#000080" font-family="sans-serif" font-size="32" font-weight="900" text-anchor="middle">A</text>
            </g>
        </svg>